<mxfile host="65bd71144e">
    <diagram id="6hGFLwfOUW9BJ-s0fimq" name="Page-1">
        <mxGraphModel dx="1374" dy="800" grid="1" gridSize="10" guides="1" tooltips="1" connect="1" arrows="1" fold="1" page="1" pageScale="1" pageWidth="827" pageHeight="1169" background="#000000" math="0" shadow="0">
            <root>
                <mxCell id="0"/>
                <mxCell id="1" parent="0"/>
                <mxCell id="63" value="" style="rounded=0;whiteSpace=wrap;html=1;fillColor=#000000;" parent="1" vertex="1">
                    <mxGeometry x="30" y="50" width="1270" height="590" as="geometry"/>
                </mxCell>
                <mxCell id="79" value="&lt;span style=&quot;color: rgb(255 , 255 , 255)&quot;&gt;&lt;b&gt;&lt;font style=&quot;font-size: 18px&quot;&gt;The Servers using Remote Execution API&lt;/font&gt;&lt;br&gt;&lt;/b&gt;&lt;/span&gt;" style="text;html=1;strokeColor=none;fillColor=none;align=center;verticalAlign=middle;whiteSpace=wrap;rounded=0;" parent="1" vertex="1">
                    <mxGeometry x="515" y="70" width="360" height="30" as="geometry"/>
                </mxCell>
                <mxCell id="81" value="&lt;span style=&quot;color: rgb(255 , 255 , 255)&quot;&gt;&lt;b&gt;&lt;font style=&quot;font-size: 12px&quot;&gt;bazel-remote&lt;/font&gt;&lt;br&gt;&lt;/b&gt;&lt;/span&gt;" style="text;html=1;strokeColor=none;fillColor=none;align=center;verticalAlign=middle;whiteSpace=wrap;rounded=0;" parent="1" vertex="1">
                    <mxGeometry x="270" y="130" width="110" height="30" as="geometry"/>
                </mxCell>
                <mxCell id="82" value="&lt;span style=&quot;color: rgb(255 , 255 , 255)&quot;&gt;&lt;b&gt;&lt;font style=&quot;font-size: 12px&quot;&gt;Buildbarn&lt;/font&gt;&lt;br&gt;&lt;/b&gt;&lt;/span&gt;" style="text;html=1;strokeColor=none;fillColor=none;align=center;verticalAlign=middle;whiteSpace=wrap;rounded=0;" parent="1" vertex="1">
                    <mxGeometry x="405" y="130" width="110" height="30" as="geometry"/>
                </mxCell>
                <mxCell id="83" value="&lt;span style=&quot;color: rgb(255 , 255 , 255)&quot;&gt;&lt;b&gt;&lt;font style=&quot;font-size: 12px&quot;&gt;BuildBuddy&lt;/font&gt;&lt;br&gt;&lt;/b&gt;&lt;/span&gt;" style="text;html=1;strokeColor=none;fillColor=none;align=center;verticalAlign=middle;whiteSpace=wrap;rounded=0;" parent="1" vertex="1">
                    <mxGeometry x="540" y="130" width="110" height="30" as="geometry"/>
                </mxCell>
                <mxCell id="84" value="&lt;span style=&quot;color: rgb(255 , 255 , 255)&quot;&gt;&lt;b&gt;&lt;font style=&quot;font-size: 12px&quot;&gt;Buildfarm&lt;/font&gt;&lt;br&gt;&lt;/b&gt;&lt;/span&gt;" style="text;html=1;strokeColor=none;fillColor=none;align=center;verticalAlign=middle;whiteSpace=wrap;rounded=0;" parent="1" vertex="1">
                    <mxGeometry x="670" y="130" width="110" height="30" as="geometry"/>
                </mxCell>
                <mxCell id="85" value="&lt;span style=&quot;color: rgb(255 , 255 , 255)&quot;&gt;&lt;b&gt;&lt;font style=&quot;font-size: 12px&quot;&gt;BuildGrid&lt;/font&gt;&lt;/b&gt;&lt;/span&gt;&lt;span style=&quot;color: rgba(0 , 0 , 0 , 0) ; font-family: monospace ; font-size: 0px&quot;&gt;%3CmxGraphModel%3E%3Croot%3E%3CmxCell%20id%3D%220%22%2F%3E%3CmxCell%20id%3D%221%22%20parent%3D%220%22%2F%3E%3CmxCell%20id%3D%222%22%20value%3D%22%26lt%3Bdiv%20style%3D%26quot%3Bfont-family%3A%20%26amp%3B%2334%3Bconsolas%26amp%3B%2334%3B%20%2C%20%26amp%3B%2334%3Bcourier%20new%26amp%3B%2334%3B%20%2C%20monospace%20%3B%20font-size%3A%2014px%20%3B%20line-height%3A%2019px%26quot%3B%26gt%3B%26lt%3Bfont%20style%3D%26quot%3Bbackground-color%3A%20rgb(0%20%2C%200%20%2C%200)%26quot%3B%20color%3D%26quot%3B%23ff0000%26quot%3B%26gt%3B%E2%88%9A%26lt%3B%2Ffont%26gt%3B%26lt%3B%2Fdiv%26gt%3B%22%20style%3D%22text%3Bhtml%3D1%3BstrokeColor%3Dnone%3BfillColor%3Dnone%3Balign%3Dcenter%3BverticalAlign%3Dmiddle%3BwhiteSpace%3Dwrap%3Brounded%3D0%3B%22%20vertex%3D%221%22%20parent%3D%221%22%3E%3CmxGeometry%20x%3D%22870%22%20y%3D%22180%22%20width%3D%22110%22%20height%3D%2230%22%20as%3D%22geometry%22%2F%3E%3C%2FmxCell%3E%3C%2Froot%3E%3C%2FmxGraphModel%3E&lt;/span&gt;&lt;span style=&quot;color: rgb(255 , 255 , 255)&quot;&gt;&lt;b&gt;&lt;br&gt;&lt;/b&gt;&lt;/span&gt;" style="text;html=1;strokeColor=none;fillColor=none;align=center;verticalAlign=middle;whiteSpace=wrap;rounded=0;" parent="1" vertex="1">
                    <mxGeometry x="800" y="130" width="110" height="30" as="geometry"/>
                </mxCell>
                <mxCell id="86" value="&lt;b&gt;&lt;font style=&quot;font-size: 12px&quot; color=&quot;#ff0000&quot;&gt;distbuild&lt;/font&gt;&lt;br&gt;&lt;/b&gt;" style="text;html=1;strokeColor=none;fillColor=none;align=center;verticalAlign=middle;whiteSpace=wrap;rounded=0;" parent="1" vertex="1">
                    <mxGeometry x="1160" y="130" width="110" height="30" as="geometry"/>
                </mxCell>
                <mxCell id="87" value="" style="endArrow=none;html=1;fontSize=12;fontColor=#FFFFFF;strokeColor=#808080;" parent="1" edge="1">
                    <mxGeometry width="50" height="50" relative="1" as="geometry">
                        <mxPoint x="260" y="620" as="sourcePoint"/>
                        <mxPoint x="260" y="115" as="targetPoint"/>
                    </mxGeometry>
                </mxCell>
                <mxCell id="88" value="" style="endArrow=none;html=1;fontSize=12;fontColor=#FFFFFF;strokeColor=#808080;" parent="1" edge="1">
                    <mxGeometry width="50" height="50" relative="1" as="geometry">
                        <mxPoint x="62" y="170" as="sourcePoint"/>
                        <mxPoint x="1267" y="170" as="targetPoint"/>
                    </mxGeometry>
                </mxCell>
                <mxCell id="97" value="&lt;div style=&quot;line-height: 19px&quot;&gt;&lt;font style=&quot;background-color: rgb(0 , 0 , 0) ; font-size: 12px&quot; color=&quot;#ff0000&quot;&gt;&lt;b&gt;Rust&lt;/b&gt;&lt;/font&gt;&lt;/div&gt;" style="text;html=1;strokeColor=none;fillColor=none;align=center;verticalAlign=middle;whiteSpace=wrap;rounded=0;" parent="1" vertex="1">
                    <mxGeometry x="1160" y="230" width="110" height="30" as="geometry"/>
                </mxCell>
                <mxCell id="133" value="" style="edgeStyle=none;html=1;" edge="1" parent="1" source="98" target="113">
                    <mxGeometry relative="1" as="geometry"/>
                </mxCell>
                <mxCell id="98" value="&lt;span style=&quot;color: rgb(255 , 255 , 255)&quot;&gt;&lt;b&gt;EngFlow&lt;br&gt;&lt;/b&gt;&lt;/span&gt;" style="text;html=1;strokeColor=none;fillColor=none;align=center;verticalAlign=middle;whiteSpace=wrap;rounded=0;" parent="1" vertex="1">
                    <mxGeometry x="930" y="130" width="110" height="30" as="geometry"/>
                </mxCell>
                <mxCell id="101" value="&lt;span style=&quot;color: rgb(255 , 255 , 255)&quot;&gt;&lt;b&gt;Scoot&lt;br&gt;&lt;/b&gt;&lt;/span&gt;" style="text;html=1;strokeColor=none;fillColor=none;align=center;verticalAlign=middle;whiteSpace=wrap;rounded=0;" parent="1" vertex="1">
                    <mxGeometry x="1060" y="130" width="80" height="30" as="geometry"/>
                </mxCell>
                <mxCell id="102" value="" style="endArrow=none;html=1;fontSize=12;fontColor=#FFFFFF;strokeColor=#808080;" parent="1" edge="1">
                    <mxGeometry width="50" height="50" relative="1" as="geometry">
                        <mxPoint x="62" y="220" as="sourcePoint"/>
                        <mxPoint x="1267" y="220" as="targetPoint"/>
                    </mxGeometry>
                </mxCell>
                <mxCell id="103" value="" style="endArrow=none;html=1;fontSize=12;fontColor=#FFFFFF;strokeColor=#808080;" parent="1" edge="1">
                    <mxGeometry width="50" height="50" relative="1" as="geometry">
                        <mxPoint x="62" y="270" as="sourcePoint"/>
                        <mxPoint x="1267" y="270" as="targetPoint"/>
                    </mxGeometry>
                </mxCell>
                <mxCell id="107" value="&lt;div&gt;&lt;b style=&quot;color: rgb(255 , 255 , 255)&quot;&gt;Language&lt;/b&gt;&lt;/div&gt;" style="text;html=1;strokeColor=none;fillColor=none;align=right;verticalAlign=middle;whiteSpace=wrap;rounded=0;" parent="1" vertex="1">
                    <mxGeometry x="160" y="230" width="90" height="30" as="geometry"/>
                </mxCell>
                <mxCell id="109" value="&lt;div&gt;&lt;b style=&quot;color: rgb(255 , 255 , 255)&quot;&gt;License&lt;/b&gt;&lt;/div&gt;" style="text;html=1;strokeColor=none;fillColor=none;align=right;verticalAlign=middle;whiteSpace=wrap;rounded=0;" parent="1" vertex="1">
                    <mxGeometry x="160" y="280" width="90" height="30" as="geometry"/>
                </mxCell>
                <mxCell id="110" value="&lt;div style=&quot;line-height: 19px&quot;&gt;&lt;font style=&quot;background-color: rgb(0 , 0 , 0) ; font-size: 12px&quot; color=&quot;#ff0000&quot;&gt;&lt;b&gt;Apache-2.0&lt;/b&gt;&lt;/font&gt;&lt;/div&gt;" style="text;html=1;strokeColor=none;fillColor=none;align=center;verticalAlign=middle;whiteSpace=wrap;rounded=0;" parent="1" vertex="1">
                    <mxGeometry x="1160" y="280" width="110" height="30" as="geometry"/>
                </mxCell>
                <mxCell id="111" value="&lt;div&gt;&lt;b style=&quot;color: rgb(255 , 255 , 255)&quot;&gt;Build System Supported&lt;/b&gt;&lt;/div&gt;" style="text;html=1;strokeColor=none;fillColor=none;align=right;verticalAlign=middle;whiteSpace=wrap;rounded=0;" parent="1" vertex="1">
                    <mxGeometry x="70" y="180" width="180" height="30" as="geometry"/>
                </mxCell>
                <mxCell id="113" value="&lt;div style=&quot;line-height: 19px&quot;&gt;&lt;font color=&quot;#ff0000&quot; style=&quot;font-size: 12px&quot;&gt;&lt;span style=&quot;background-color: rgb(0 , 0 , 0)&quot;&gt;&lt;b&gt;ninja&lt;/b&gt;&lt;/span&gt;&lt;/font&gt;&lt;/div&gt;" style="text;html=1;strokeColor=none;fillColor=none;align=center;verticalAlign=middle;whiteSpace=wrap;rounded=0;" parent="1" vertex="1">
                    <mxGeometry x="1160" y="180" width="110" height="30" as="geometry"/>
                </mxCell>
                <mxCell id="114" value="" style="endArrow=none;html=1;fontSize=12;fontColor=#FFFFFF;strokeColor=#808080;" parent="1" edge="1">
                    <mxGeometry width="50" height="50" relative="1" as="geometry">
                        <mxPoint x="62" y="320.0000000000002" as="sourcePoint"/>
                        <mxPoint x="1267" y="320.0000000000002" as="targetPoint"/>
                    </mxGeometry>
                </mxCell>
                <mxCell id="115" value="" style="endArrow=none;html=1;fontSize=12;fontColor=#FFFFFF;strokeColor=#808080;" parent="1" edge="1">
                    <mxGeometry width="50" height="50" relative="1" as="geometry">
                        <mxPoint x="62" y="370.0000000000002" as="sourcePoint"/>
                        <mxPoint x="1267" y="370.0000000000002" as="targetPoint"/>
                    </mxGeometry>
                </mxCell>
                <mxCell id="116" value="" style="endArrow=none;html=1;fontSize=12;fontColor=#FFFFFF;strokeColor=#808080;" parent="1" edge="1">
                    <mxGeometry width="50" height="50" relative="1" as="geometry">
                        <mxPoint x="62" y="420.0000000000002" as="sourcePoint"/>
                        <mxPoint x="1267" y="420.0000000000002" as="targetPoint"/>
                    </mxGeometry>
                </mxCell>
                <mxCell id="117" value="" style="endArrow=none;html=1;fontSize=12;fontColor=#FFFFFF;strokeColor=#808080;" parent="1" edge="1">
                    <mxGeometry width="50" height="50" relative="1" as="geometry">
                        <mxPoint x="62" y="470.0000000000002" as="sourcePoint"/>
                        <mxPoint x="1267" y="470.0000000000002" as="targetPoint"/>
                    </mxGeometry>
                </mxCell>
                <mxCell id="118" value="" style="endArrow=none;html=1;fontSize=12;fontColor=#FFFFFF;strokeColor=#808080;" parent="1" edge="1">
                    <mxGeometry width="50" height="50" relative="1" as="geometry">
                        <mxPoint x="62" y="520.0000000000002" as="sourcePoint"/>
                        <mxPoint x="1267" y="520.0000000000002" as="targetPoint"/>
                    </mxGeometry>
                </mxCell>
                <mxCell id="119" value="" style="endArrow=none;html=1;fontSize=12;fontColor=#FFFFFF;strokeColor=#808080;" parent="1" edge="1">
                    <mxGeometry width="50" height="50" relative="1" as="geometry">
                        <mxPoint x="62" y="570.0000000000002" as="sourcePoint"/>
                        <mxPoint x="1267" y="570.0000000000002" as="targetPoint"/>
                    </mxGeometry>
                </mxCell>
                <mxCell id="121" value="&lt;div style=&quot;line-height: 19px&quot;&gt;&lt;font style=&quot;background-color: rgb(0 , 0 , 0) ; font-size: 12px&quot; color=&quot;#ffffff&quot;&gt;&lt;b&gt;Content-Addressable Storage&lt;/b&gt;&lt;/font&gt;&lt;/div&gt;" style="text;html=1;strokeColor=none;fillColor=none;align=right;verticalAlign=middle;whiteSpace=wrap;rounded=0;" vertex="1" parent="1">
                    <mxGeometry x="60" y="330" width="190" height="30" as="geometry"/>
                </mxCell>
                <mxCell id="122" value="&lt;div style=&quot;line-height: 19px&quot;&gt;&lt;font style=&quot;background-color: rgb(0 , 0 , 0) ; font-size: 12px&quot; color=&quot;#ffffff&quot;&gt;&lt;b&gt;Action Cache Service&lt;/b&gt;&lt;/font&gt;&lt;/div&gt;" style="text;html=1;strokeColor=none;fillColor=none;align=right;verticalAlign=middle;whiteSpace=wrap;rounded=0;" vertex="1" parent="1">
                    <mxGeometry x="60" y="380" width="190" height="30" as="geometry"/>
                </mxCell>
                <mxCell id="123" value="&lt;div style=&quot;line-height: 19px&quot;&gt;&lt;font style=&quot;background-color: rgb(0 , 0 , 0) ; font-size: 12px&quot; color=&quot;#ffffff&quot;&gt;&lt;b&gt;Execution Service&lt;/b&gt;&lt;/font&gt;&lt;/div&gt;" style="text;html=1;strokeColor=none;fillColor=none;align=right;verticalAlign=middle;whiteSpace=wrap;rounded=0;" vertex="1" parent="1">
                    <mxGeometry x="60" y="430" width="190" height="30" as="geometry"/>
                </mxCell>
                <mxCell id="124" value="&lt;div&gt;&lt;b style=&quot;color: rgb(255 , 255 , 255)&quot;&gt;Storage&lt;/b&gt;&lt;/div&gt;" style="text;html=1;strokeColor=none;fillColor=none;align=right;verticalAlign=middle;whiteSpace=wrap;rounded=0;" vertex="1" parent="1">
                    <mxGeometry x="160" y="584.5" width="90" height="30" as="geometry"/>
                </mxCell>
                <mxCell id="125" value="&lt;div style=&quot;line-height: 19px&quot;&gt;&lt;font color=&quot;#ffffff&quot; style=&quot;font-size: 12px&quot;&gt;&lt;b&gt;Bazel&lt;/b&gt;&lt;/font&gt;&lt;br&gt;&lt;/div&gt;" style="text;html=1;strokeColor=none;fillColor=none;align=center;verticalAlign=middle;whiteSpace=wrap;rounded=0;" vertex="1" parent="1">
                    <mxGeometry x="270" y="180" width="110" height="30" as="geometry"/>
                </mxCell>
                <mxCell id="127" value="&lt;div style=&quot;line-height: 19px&quot;&gt;&lt;font style=&quot;background-color: rgb(0 , 0 , 0) ; font-size: 12px&quot; color=&quot;#ffffff&quot;&gt;&lt;b&gt;Go&lt;/b&gt;&lt;/font&gt;&lt;/div&gt;" style="text;html=1;strokeColor=none;fillColor=none;align=center;verticalAlign=middle;whiteSpace=wrap;rounded=0;" vertex="1" parent="1">
                    <mxGeometry x="270" y="230" width="110" height="30" as="geometry"/>
                </mxCell>
                <mxCell id="128" value="&lt;div style=&quot;line-height: 19px&quot;&gt;&lt;font color=&quot;#ffffff&quot; style=&quot;font-size: 12px&quot;&gt;&lt;b&gt;Bazel,&lt;/b&gt;&lt;/font&gt;&lt;br&gt;&lt;/div&gt;&lt;div style=&quot;line-height: 19px&quot;&gt;&lt;font color=&quot;#ffffff&quot; style=&quot;font-size: 12px&quot;&gt;&lt;b&gt;BuildStream, Recc&lt;/b&gt;&lt;/font&gt;&lt;/div&gt;" style="text;html=1;strokeColor=none;fillColor=none;align=center;verticalAlign=middle;whiteSpace=wrap;rounded=0;" vertex="1" parent="1">
                    <mxGeometry x="405" y="180" width="110" height="30" as="geometry"/>
                </mxCell>
                <mxCell id="129" value="&lt;div style=&quot;line-height: 19px&quot;&gt;&lt;font color=&quot;#ffffff&quot; style=&quot;font-size: 12px&quot;&gt;&lt;b&gt;Bazel&lt;/b&gt;&lt;/font&gt;&lt;br&gt;&lt;/div&gt;" style="text;html=1;strokeColor=none;fillColor=none;align=center;verticalAlign=middle;whiteSpace=wrap;rounded=0;" vertex="1" parent="1">
                    <mxGeometry x="540" y="180" width="110" height="30" as="geometry"/>
                </mxCell>
                <mxCell id="130" value="&lt;div style=&quot;line-height: 19px&quot;&gt;&lt;font color=&quot;#ffffff&quot; style=&quot;font-size: 12px&quot;&gt;&lt;b&gt;Bazel&lt;/b&gt;&lt;/font&gt;&lt;br&gt;&lt;/div&gt;" style="text;html=1;strokeColor=none;fillColor=none;align=center;verticalAlign=middle;whiteSpace=wrap;rounded=0;" vertex="1" parent="1">
                    <mxGeometry x="670" y="180" width="110" height="30" as="geometry"/>
                </mxCell>
                <mxCell id="131" value="&lt;div style=&quot;line-height: 19px&quot;&gt;&lt;font color=&quot;#ffffff&quot; style=&quot;font-size: 12px&quot;&gt;&lt;b&gt;Bazel,&lt;/b&gt;&lt;/font&gt;&lt;br&gt;&lt;/div&gt;&lt;div style=&quot;line-height: 19px&quot;&gt;&lt;font color=&quot;#ffffff&quot; style=&quot;font-size: 12px&quot;&gt;&lt;b&gt;BuildStream, Recc&lt;/b&gt;&lt;/font&gt;&lt;/div&gt;" style="text;html=1;strokeColor=none;fillColor=none;align=center;verticalAlign=middle;whiteSpace=wrap;rounded=0;" vertex="1" parent="1">
                    <mxGeometry x="800" y="180" width="110" height="30" as="geometry"/>
                </mxCell>
                <mxCell id="132" value="&lt;div style=&quot;line-height: 19px&quot;&gt;&lt;font color=&quot;#ffffff&quot; style=&quot;font-size: 12px&quot;&gt;&lt;b&gt;Bazel&lt;/b&gt;&lt;/font&gt;&lt;br&gt;&lt;/div&gt;" style="text;html=1;strokeColor=none;fillColor=none;align=center;verticalAlign=middle;whiteSpace=wrap;rounded=0;" vertex="1" parent="1">
                    <mxGeometry x="930" y="180" width="110" height="30" as="geometry"/>
                </mxCell>
                <mxCell id="134" value="&lt;div style=&quot;line-height: 19px&quot;&gt;&lt;font color=&quot;#ffffff&quot; style=&quot;font-size: 12px&quot;&gt;&lt;b&gt;Bazel&lt;/b&gt;&lt;/font&gt;&lt;br&gt;&lt;/div&gt;" style="text;html=1;strokeColor=none;fillColor=none;align=center;verticalAlign=middle;whiteSpace=wrap;rounded=0;" vertex="1" parent="1">
                    <mxGeometry x="1045" y="180" width="110" height="30" as="geometry"/>
                </mxCell>
                <mxCell id="135" value="&lt;div style=&quot;line-height: 19px&quot;&gt;&lt;font style=&quot;background-color: rgb(0 , 0 , 0) ; font-size: 12px&quot; color=&quot;#ffffff&quot;&gt;&lt;b&gt;Go&lt;/b&gt;&lt;/font&gt;&lt;/div&gt;" style="text;html=1;strokeColor=none;fillColor=none;align=center;verticalAlign=middle;whiteSpace=wrap;rounded=0;" vertex="1" parent="1">
                    <mxGeometry x="405" y="230" width="110" height="30" as="geometry"/>
                </mxCell>
                <mxCell id="136" value="&lt;div style=&quot;line-height: 19px&quot;&gt;&lt;font style=&quot;background-color: rgb(0 , 0 , 0) ; font-size: 12px&quot; color=&quot;#ffffff&quot;&gt;&lt;b&gt;Go&lt;/b&gt;&lt;/font&gt;&lt;/div&gt;" style="text;html=1;strokeColor=none;fillColor=none;align=center;verticalAlign=middle;whiteSpace=wrap;rounded=0;" vertex="1" parent="1">
                    <mxGeometry x="540" y="230" width="110" height="30" as="geometry"/>
                </mxCell>
                <mxCell id="137" value="&lt;div style=&quot;line-height: 19px&quot;&gt;&lt;font style=&quot;background-color: rgb(0 , 0 , 0) ; font-size: 12px&quot; color=&quot;#ffffff&quot;&gt;&lt;b&gt;Java&lt;/b&gt;&lt;/font&gt;&lt;/div&gt;" style="text;html=1;strokeColor=none;fillColor=none;align=center;verticalAlign=middle;whiteSpace=wrap;rounded=0;" vertex="1" parent="1">
                    <mxGeometry x="670" y="230" width="110" height="30" as="geometry"/>
                </mxCell>
                <mxCell id="138" value="&lt;div style=&quot;line-height: 19px&quot;&gt;&lt;font style=&quot;background-color: rgb(0 , 0 , 0) ; font-size: 12px&quot; color=&quot;#ffffff&quot;&gt;&lt;b&gt;Python&lt;/b&gt;&lt;/font&gt;&lt;/div&gt;" style="text;html=1;strokeColor=none;fillColor=none;align=center;verticalAlign=middle;whiteSpace=wrap;rounded=0;" vertex="1" parent="1">
                    <mxGeometry x="800" y="230" width="110" height="30" as="geometry"/>
                </mxCell>
                <mxCell id="139" value="&lt;div style=&quot;line-height: 19px&quot;&gt;&lt;font style=&quot;background-color: rgb(0 , 0 , 0) ; font-size: 12px&quot; color=&quot;#ffffff&quot;&gt;&lt;b&gt;Java&lt;/b&gt;&lt;/font&gt;&lt;/div&gt;" style="text;html=1;strokeColor=none;fillColor=none;align=center;verticalAlign=middle;whiteSpace=wrap;rounded=0;" vertex="1" parent="1">
                    <mxGeometry x="930" y="230" width="110" height="30" as="geometry"/>
                </mxCell>
                <mxCell id="140" value="&lt;div style=&quot;line-height: 19px&quot;&gt;&lt;font style=&quot;background-color: rgb(0 , 0 , 0) ; font-size: 12px&quot; color=&quot;#ffffff&quot;&gt;&lt;b&gt;Go&lt;/b&gt;&lt;/font&gt;&lt;/div&gt;" style="text;html=1;strokeColor=none;fillColor=none;align=center;verticalAlign=middle;whiteSpace=wrap;rounded=0;" vertex="1" parent="1">
                    <mxGeometry x="1045" y="230" width="110" height="30" as="geometry"/>
                </mxCell>
                <mxCell id="141" value="&lt;div style=&quot;line-height: 19px&quot;&gt;&lt;font style=&quot;background-color: rgb(0 , 0 , 0) ; font-size: 12px&quot; color=&quot;#ffffff&quot;&gt;&lt;b&gt;Apache-2.0&lt;/b&gt;&lt;/font&gt;&lt;/div&gt;" style="text;html=1;strokeColor=none;fillColor=none;align=center;verticalAlign=middle;whiteSpace=wrap;rounded=0;" vertex="1" parent="1">
                    <mxGeometry x="270" y="280" width="110" height="30" as="geometry"/>
                </mxCell>
                <mxCell id="142" value="&lt;div style=&quot;line-height: 19px&quot;&gt;&lt;font style=&quot;background-color: rgb(0 , 0 , 0) ; font-size: 12px&quot; color=&quot;#ffffff&quot;&gt;&lt;b&gt;Apache-2.0&lt;/b&gt;&lt;/font&gt;&lt;/div&gt;" style="text;html=1;strokeColor=none;fillColor=none;align=center;verticalAlign=middle;whiteSpace=wrap;rounded=0;" vertex="1" parent="1">
                    <mxGeometry x="405" y="280" width="110" height="30" as="geometry"/>
                </mxCell>
                <mxCell id="143" value="&lt;div style=&quot;line-height: 19px&quot;&gt;&lt;font style=&quot;background-color: rgb(0 , 0 , 0) ; font-size: 12px&quot; color=&quot;#ffffff&quot;&gt;&lt;b&gt;BuildBuddy,&lt;/b&gt;&lt;/font&gt;&lt;/div&gt;&lt;div style=&quot;line-height: 19px&quot;&gt;&lt;font style=&quot;background-color: rgb(0 , 0 , 0) ; font-size: 12px&quot; color=&quot;#ffffff&quot;&gt;&lt;b&gt;Apache-2.0&lt;/b&gt;&lt;/font&gt;&lt;/div&gt;" style="text;html=1;strokeColor=none;fillColor=none;align=center;verticalAlign=middle;whiteSpace=wrap;rounded=0;" vertex="1" parent="1">
                    <mxGeometry x="540" y="280" width="110" height="30" as="geometry"/>
                </mxCell>
                <mxCell id="144" value="&lt;div style=&quot;line-height: 19px&quot;&gt;&lt;font style=&quot;background-color: rgb(0 , 0 , 0) ; font-size: 12px&quot; color=&quot;#ffffff&quot;&gt;&lt;b&gt;Apache-2.0&lt;/b&gt;&lt;/font&gt;&lt;/div&gt;" style="text;html=1;strokeColor=none;fillColor=none;align=center;verticalAlign=middle;whiteSpace=wrap;rounded=0;" vertex="1" parent="1">
                    <mxGeometry x="670" y="280" width="110" height="30" as="geometry"/>
                </mxCell>
                <mxCell id="145" value="&lt;div style=&quot;line-height: 19px&quot;&gt;&lt;font style=&quot;background-color: rgb(0 , 0 , 0) ; font-size: 12px&quot; color=&quot;#ffffff&quot;&gt;&lt;b&gt;Apache-2.0&lt;/b&gt;&lt;/font&gt;&lt;/div&gt;" style="text;html=1;strokeColor=none;fillColor=none;align=center;verticalAlign=middle;whiteSpace=wrap;rounded=0;" vertex="1" parent="1">
                    <mxGeometry x="800" y="280" width="110" height="30" as="geometry"/>
                </mxCell>
                <mxCell id="146" value="&lt;div style=&quot;line-height: 19px&quot;&gt;&lt;font style=&quot;background-color: rgb(0 , 0 , 0) ; font-size: 12px&quot; color=&quot;#ffffff&quot;&gt;&lt;b&gt;Apache-2.0&lt;/b&gt;&lt;/font&gt;&lt;/div&gt;" style="text;html=1;strokeColor=none;fillColor=none;align=center;verticalAlign=middle;whiteSpace=wrap;rounded=0;" vertex="1" parent="1">
                    <mxGeometry x="1045" y="280" width="110" height="30" as="geometry"/>
                </mxCell>
                <mxCell id="147" value="&lt;div style=&quot;line-height: 19px&quot;&gt;&lt;font style=&quot;background-color: rgb(0 , 0 , 0) ; font-size: 12px&quot; color=&quot;#ffffff&quot;&gt;&lt;b&gt;N/A&lt;/b&gt;&lt;/font&gt;&lt;/div&gt;" style="text;html=1;strokeColor=none;fillColor=none;align=center;verticalAlign=middle;whiteSpace=wrap;rounded=0;" vertex="1" parent="1">
                    <mxGeometry x="930" y="280" width="110" height="30" as="geometry"/>
                </mxCell>
                <mxCell id="148" value="&lt;div style=&quot;line-height: 19px&quot;&gt;&lt;font style=&quot;background-color: rgb(0 , 0 , 0) ; font-size: 12px&quot; color=&quot;#ffffff&quot;&gt;&lt;b&gt;Local&lt;/b&gt;&lt;/font&gt;&lt;/div&gt;" style="text;html=1;strokeColor=none;fillColor=none;align=center;verticalAlign=middle;whiteSpace=wrap;rounded=0;" vertex="1" parent="1">
                    <mxGeometry x="1047" y="585" width="110" height="30" as="geometry"/>
                </mxCell>
                <mxCell id="149" value="&lt;div style=&quot;line-height: 19px&quot;&gt;&lt;b style=&quot;color: rgb(255 , 255 , 255)&quot;&gt;AWS S3,&amp;nbsp;&lt;/b&gt;&lt;/div&gt;&lt;div style=&quot;line-height: 19px&quot;&gt;&lt;b style=&quot;color: rgb(255 , 255 , 255)&quot;&gt;GCS, Local&lt;/b&gt;&lt;/div&gt;" style="text;html=1;strokeColor=none;fillColor=none;align=center;verticalAlign=middle;whiteSpace=wrap;rounded=0;" vertex="1" parent="1">
                    <mxGeometry x="933" y="585" width="110" height="30" as="geometry"/>
                </mxCell>
                <mxCell id="150" value="&lt;div style=&quot;line-height: 19px&quot;&gt;&lt;b style=&quot;color: rgb(255 , 255 , 255)&quot;&gt;AWS S3,&amp;nbsp;&lt;/b&gt;&lt;/div&gt;&lt;div style=&quot;line-height: 19px&quot;&gt;&lt;b style=&quot;color: rgb(255 , 255 , 255)&quot;&gt;Local, Redis&lt;/b&gt;&lt;/div&gt;" style="text;html=1;strokeColor=none;fillColor=none;align=center;verticalAlign=middle;whiteSpace=wrap;rounded=0;" vertex="1" parent="1">
                    <mxGeometry x="803" y="585" width="110" height="30" as="geometry"/>
                </mxCell>
                <mxCell id="151" value="&lt;div style=&quot;line-height: 19px&quot;&gt;&lt;font style=&quot;background-color: rgb(0 , 0 , 0) ; font-size: 12px&quot; color=&quot;#ffffff&quot;&gt;&lt;b&gt;Local&lt;/b&gt;&lt;/font&gt;&lt;/div&gt;" style="text;html=1;strokeColor=none;fillColor=none;align=center;verticalAlign=middle;whiteSpace=wrap;rounded=0;" vertex="1" parent="1">
                    <mxGeometry x="673" y="585" width="110" height="30" as="geometry"/>
                </mxCell>
                <mxCell id="152" value="&lt;div style=&quot;line-height: 19px&quot;&gt;&lt;b style=&quot;color: rgb(255 , 255 , 255)&quot;&gt;AWS S3, Azure,&amp;nbsp;&lt;/b&gt;&lt;/div&gt;&lt;div style=&quot;line-height: 19px&quot;&gt;&lt;b style=&quot;color: rgb(255 , 255 , 255)&quot;&gt;GCS, Local&lt;/b&gt;&lt;/div&gt;" style="text;html=1;strokeColor=none;fillColor=none;align=center;verticalAlign=middle;whiteSpace=wrap;rounded=0;" vertex="1" parent="1">
                    <mxGeometry x="543" y="585" width="110" height="30" as="geometry"/>
                </mxCell>
                <mxCell id="153" value="&lt;div style=&quot;line-height: 19px&quot;&gt;&lt;b style=&quot;color: rgb(255 , 255 , 255)&quot;&gt;AWS S3,&amp;nbsp;&lt;/b&gt;&lt;/div&gt;&lt;div style=&quot;line-height: 19px&quot;&gt;&lt;b style=&quot;color: rgb(255 , 255 , 255)&quot;&gt;Local, Redis&lt;/b&gt;&lt;/div&gt;" style="text;html=1;strokeColor=none;fillColor=none;align=center;verticalAlign=middle;whiteSpace=wrap;rounded=0;" vertex="1" parent="1">
                    <mxGeometry x="405" y="585" width="110" height="30" as="geometry"/>
                </mxCell>
                <mxCell id="154" value="&lt;div style=&quot;line-height: 19px&quot;&gt;&lt;b style=&quot;color: rgb(255 , 255 , 255)&quot;&gt;AWS S3,&amp;nbsp;&lt;/b&gt;&lt;/div&gt;&lt;div style=&quot;line-height: 19px&quot;&gt;&lt;b style=&quot;color: rgb(255 , 255 , 255)&quot;&gt;GCS, Local&lt;/b&gt;&lt;/div&gt;" style="text;html=1;strokeColor=none;fillColor=none;align=center;verticalAlign=middle;whiteSpace=wrap;rounded=0;" vertex="1" parent="1">
                    <mxGeometry x="273" y="585" width="110" height="30" as="geometry"/>
                </mxCell>
                <mxCell id="155" value="&lt;div style=&quot;line-height: 19px&quot;&gt;&lt;b&gt;&lt;font color=&quot;#ff0000&quot;&gt;AWS S3, Azure,&amp;nbsp;&lt;/font&gt;&lt;/b&gt;&lt;/div&gt;&lt;div style=&quot;line-height: 19px&quot;&gt;&lt;b&gt;&lt;font color=&quot;#ff0000&quot;&gt;GCS, Local, Redis&lt;/font&gt;&lt;/b&gt;&lt;/div&gt;" style="text;html=1;strokeColor=none;fillColor=none;align=center;verticalAlign=middle;whiteSpace=wrap;rounded=0;" vertex="1" parent="1">
                    <mxGeometry x="1160" y="585" width="110" height="30" as="geometry"/>
                </mxCell>
                <mxCell id="157" value="&lt;div style=&quot;line-height: 19px&quot;&gt;&lt;font style=&quot;background-color: rgb(0 , 0 , 0) ; font-size: 12px&quot; color=&quot;#ffffff&quot;&gt;&lt;b&gt;Byte Stream&lt;/b&gt;&lt;/font&gt;&lt;/div&gt;" style="text;html=1;strokeColor=none;fillColor=none;align=right;verticalAlign=middle;whiteSpace=wrap;rounded=0;" vertex="1" parent="1">
                    <mxGeometry x="60" y="530" width="190" height="30" as="geometry"/>
                </mxCell>
                <mxCell id="158" value="&lt;div style=&quot;line-height: 19px&quot;&gt;&lt;font style=&quot;background-color: rgb(0 , 0 , 0) ; font-size: 12px&quot; color=&quot;#ffffff&quot;&gt;&lt;b&gt;Capabilites Service&lt;/b&gt;&lt;/font&gt;&lt;/div&gt;" style="text;html=1;strokeColor=none;fillColor=none;align=right;verticalAlign=middle;whiteSpace=wrap;rounded=0;" vertex="1" parent="1">
                    <mxGeometry x="60" y="480" width="190" height="30" as="geometry"/>
                </mxCell>
                <mxCell id="159" value="&lt;div style=&quot;line-height: 19px&quot;&gt;&lt;font style=&quot;background-color: rgb(0 , 0 , 0) ; font-size: 12px&quot; color=&quot;#ff0000&quot;&gt;&lt;b&gt;√&lt;/b&gt;&lt;/font&gt;&lt;/div&gt;" style="text;html=1;strokeColor=none;fillColor=none;align=center;verticalAlign=middle;whiteSpace=wrap;rounded=0;" vertex="1" parent="1">
                    <mxGeometry x="1160" y="330" width="110" height="30" as="geometry"/>
                </mxCell>
                <mxCell id="160" value="&lt;div style=&quot;line-height: 19px&quot;&gt;&lt;font style=&quot;background-color: rgb(0 , 0 , 0) ; font-size: 12px&quot; color=&quot;#ff0000&quot;&gt;&lt;b&gt;√&lt;/b&gt;&lt;/font&gt;&lt;/div&gt;" style="text;html=1;strokeColor=none;fillColor=none;align=center;verticalAlign=middle;whiteSpace=wrap;rounded=0;" vertex="1" parent="1">
                    <mxGeometry x="1160" y="380" width="110" height="30" as="geometry"/>
                </mxCell>
                <mxCell id="161" value="&lt;div style=&quot;line-height: 19px&quot;&gt;&lt;font style=&quot;background-color: rgb(0 , 0 , 0) ; font-size: 12px&quot; color=&quot;#ff0000&quot;&gt;&lt;b&gt;√&lt;/b&gt;&lt;/font&gt;&lt;/div&gt;" style="text;html=1;strokeColor=none;fillColor=none;align=center;verticalAlign=middle;whiteSpace=wrap;rounded=0;" vertex="1" parent="1">
                    <mxGeometry x="1160" y="430" width="110" height="30" as="geometry"/>
                </mxCell>
                <mxCell id="162" value="&lt;div style=&quot;line-height: 19px&quot;&gt;&lt;font style=&quot;background-color: rgb(0 , 0 , 0) ; font-size: 12px&quot; color=&quot;#ff0000&quot;&gt;&lt;b&gt;√&lt;/b&gt;&lt;/font&gt;&lt;/div&gt;" style="text;html=1;strokeColor=none;fillColor=none;align=center;verticalAlign=middle;whiteSpace=wrap;rounded=0;" vertex="1" parent="1">
                    <mxGeometry x="1160" y="480" width="110" height="30" as="geometry"/>
                </mxCell>
                <mxCell id="163" value="&lt;div style=&quot;line-height: 19px&quot;&gt;&lt;font style=&quot;background-color: rgb(0 , 0 , 0) ; font-size: 12px&quot; color=&quot;#ff0000&quot;&gt;&lt;b&gt;√&lt;/b&gt;&lt;/font&gt;&lt;/div&gt;" style="text;html=1;strokeColor=none;fillColor=none;align=center;verticalAlign=middle;whiteSpace=wrap;rounded=0;" vertex="1" parent="1">
                    <mxGeometry x="1160" y="530" width="110" height="30" as="geometry"/>
                </mxCell>
                <mxCell id="164" value="&lt;div style=&quot;line-height: 19px&quot;&gt;&lt;font color=&quot;#ffffff&quot; style=&quot;background-color: rgb(0 , 0 , 0) ; font-size: 12px&quot;&gt;&lt;b&gt;√&lt;/b&gt;&lt;/font&gt;&lt;/div&gt;" style="text;html=1;strokeColor=none;fillColor=none;align=center;verticalAlign=middle;whiteSpace=wrap;rounded=0;" vertex="1" parent="1">
                    <mxGeometry x="1045" y="330" width="110" height="30" as="geometry"/>
                </mxCell>
                <mxCell id="165" value="&lt;div style=&quot;line-height: 19px&quot;&gt;&lt;font color=&quot;#ffffff&quot; style=&quot;background-color: rgb(0 , 0 , 0) ; font-size: 12px&quot;&gt;&lt;b&gt;√&lt;/b&gt;&lt;/font&gt;&lt;/div&gt;" style="text;html=1;strokeColor=none;fillColor=none;align=center;verticalAlign=middle;whiteSpace=wrap;rounded=0;" vertex="1" parent="1">
                    <mxGeometry x="1045" y="380" width="110" height="30" as="geometry"/>
                </mxCell>
                <mxCell id="166" value="&lt;div style=&quot;line-height: 19px&quot;&gt;&lt;font color=&quot;#ffffff&quot; style=&quot;background-color: rgb(0 , 0 , 0) ; font-size: 12px&quot;&gt;&lt;b&gt;√&lt;/b&gt;&lt;/font&gt;&lt;/div&gt;" style="text;html=1;strokeColor=none;fillColor=none;align=center;verticalAlign=middle;whiteSpace=wrap;rounded=0;" vertex="1" parent="1">
                    <mxGeometry x="1045" y="430" width="110" height="30" as="geometry"/>
                </mxCell>
                <mxCell id="167" value="&lt;div style=&quot;line-height: 19px&quot;&gt;&lt;font color=&quot;#ffffff&quot; style=&quot;background-color: rgb(0 , 0 , 0) ; font-size: 12px&quot;&gt;&lt;b&gt;√&lt;/b&gt;&lt;/font&gt;&lt;/div&gt;" style="text;html=1;strokeColor=none;fillColor=none;align=center;verticalAlign=middle;whiteSpace=wrap;rounded=0;" vertex="1" parent="1">
                    <mxGeometry x="1045" y="530" width="110" height="30" as="geometry"/>
                </mxCell>
                <mxCell id="168" value="&lt;div style=&quot;line-height: 19px&quot;&gt;&lt;font color=&quot;#ffffff&quot;&gt;&lt;span style=&quot;background-color: rgb(0 , 0 , 0)&quot;&gt;&lt;b&gt;x&lt;/b&gt;&lt;/span&gt;&lt;/font&gt;&lt;/div&gt;" style="text;html=1;strokeColor=none;fillColor=none;align=center;verticalAlign=middle;whiteSpace=wrap;rounded=0;" vertex="1" parent="1">
                    <mxGeometry x="1045" y="480" width="110" height="30" as="geometry"/>
                </mxCell>
                <mxCell id="169" value="&lt;div style=&quot;line-height: 19px&quot;&gt;&lt;font color=&quot;#ffffff&quot; style=&quot;background-color: rgb(0 , 0 , 0) ; font-size: 12px&quot;&gt;&lt;b&gt;√&lt;/b&gt;&lt;/font&gt;&lt;/div&gt;" style="text;html=1;strokeColor=none;fillColor=none;align=center;verticalAlign=middle;whiteSpace=wrap;rounded=0;" vertex="1" parent="1">
                    <mxGeometry x="930" y="330" width="110" height="30" as="geometry"/>
                </mxCell>
                <mxCell id="170" value="&lt;div style=&quot;line-height: 19px&quot;&gt;&lt;font color=&quot;#ffffff&quot; style=&quot;background-color: rgb(0 , 0 , 0) ; font-size: 12px&quot;&gt;&lt;b&gt;√&lt;/b&gt;&lt;/font&gt;&lt;/div&gt;" style="text;html=1;strokeColor=none;fillColor=none;align=center;verticalAlign=middle;whiteSpace=wrap;rounded=0;" vertex="1" parent="1">
                    <mxGeometry x="930" y="380" width="110" height="30" as="geometry"/>
                </mxCell>
                <mxCell id="171" value="&lt;div style=&quot;line-height: 19px&quot;&gt;&lt;font color=&quot;#ffffff&quot; style=&quot;background-color: rgb(0 , 0 , 0) ; font-size: 12px&quot;&gt;&lt;b&gt;√&lt;/b&gt;&lt;/font&gt;&lt;/div&gt;" style="text;html=1;strokeColor=none;fillColor=none;align=center;verticalAlign=middle;whiteSpace=wrap;rounded=0;" vertex="1" parent="1">
                    <mxGeometry x="930" y="430" width="110" height="30" as="geometry"/>
                </mxCell>
                <mxCell id="172" value="&lt;div style=&quot;line-height: 19px&quot;&gt;&lt;font color=&quot;#ffffff&quot; style=&quot;background-color: rgb(0 , 0 , 0) ; font-size: 12px&quot;&gt;&lt;b&gt;N/A&lt;/b&gt;&lt;/font&gt;&lt;/div&gt;" style="text;html=1;strokeColor=none;fillColor=none;align=center;verticalAlign=middle;whiteSpace=wrap;rounded=0;" vertex="1" parent="1">
                    <mxGeometry x="930" y="480" width="110" height="30" as="geometry"/>
                </mxCell>
                <mxCell id="173" value="&lt;div style=&quot;line-height: 19px&quot;&gt;&lt;font color=&quot;#ffffff&quot; style=&quot;background-color: rgb(0 , 0 , 0) ; font-size: 12px&quot;&gt;&lt;b&gt;N/A&lt;/b&gt;&lt;/font&gt;&lt;/div&gt;" style="text;html=1;strokeColor=none;fillColor=none;align=center;verticalAlign=middle;whiteSpace=wrap;rounded=0;" vertex="1" parent="1">
                    <mxGeometry x="930" y="530" width="110" height="30" as="geometry"/>
                </mxCell>
                <mxCell id="174" value="&lt;div style=&quot;line-height: 19px&quot;&gt;&lt;font color=&quot;#ffffff&quot; style=&quot;background-color: rgb(0 , 0 , 0) ; font-size: 12px&quot;&gt;&lt;b&gt;√&lt;/b&gt;&lt;/font&gt;&lt;/div&gt;" style="text;html=1;strokeColor=none;fillColor=none;align=center;verticalAlign=middle;whiteSpace=wrap;rounded=0;" vertex="1" parent="1">
                    <mxGeometry x="800" y="330" width="110" height="30" as="geometry"/>
                </mxCell>
                <mxCell id="175" value="&lt;div style=&quot;line-height: 19px&quot;&gt;&lt;font color=&quot;#ffffff&quot; style=&quot;background-color: rgb(0 , 0 , 0) ; font-size: 12px&quot;&gt;&lt;b&gt;√&lt;/b&gt;&lt;/font&gt;&lt;/div&gt;" style="text;html=1;strokeColor=none;fillColor=none;align=center;verticalAlign=middle;whiteSpace=wrap;rounded=0;" vertex="1" parent="1">
                    <mxGeometry x="800" y="380" width="110" height="30" as="geometry"/>
                </mxCell>
                <mxCell id="176" value="&lt;div style=&quot;line-height: 19px&quot;&gt;&lt;font color=&quot;#ffffff&quot; style=&quot;background-color: rgb(0 , 0 , 0) ; font-size: 12px&quot;&gt;&lt;b&gt;√&lt;/b&gt;&lt;/font&gt;&lt;/div&gt;" style="text;html=1;strokeColor=none;fillColor=none;align=center;verticalAlign=middle;whiteSpace=wrap;rounded=0;" vertex="1" parent="1">
                    <mxGeometry x="800" y="430" width="110" height="30" as="geometry"/>
                </mxCell>
                <mxCell id="177" value="&lt;div style=&quot;line-height: 19px&quot;&gt;&lt;font color=&quot;#ffffff&quot; style=&quot;background-color: rgb(0 , 0 , 0) ; font-size: 12px&quot;&gt;&lt;b&gt;x&lt;/b&gt;&lt;/font&gt;&lt;/div&gt;" style="text;html=1;strokeColor=none;fillColor=none;align=center;verticalAlign=middle;whiteSpace=wrap;rounded=0;" vertex="1" parent="1">
                    <mxGeometry x="800" y="480" width="110" height="30" as="geometry"/>
                </mxCell>
                <mxCell id="178" value="&lt;div style=&quot;line-height: 19px&quot;&gt;&lt;font color=&quot;#ffffff&quot; style=&quot;background-color: rgb(0 , 0 , 0) ; font-size: 12px&quot;&gt;&lt;b&gt;√&lt;/b&gt;&lt;/font&gt;&lt;/div&gt;" style="text;html=1;strokeColor=none;fillColor=none;align=center;verticalAlign=middle;whiteSpace=wrap;rounded=0;" vertex="1" parent="1">
                    <mxGeometry x="800" y="530" width="110" height="30" as="geometry"/>
                </mxCell>
                <mxCell id="179" value="&lt;div style=&quot;line-height: 19px&quot;&gt;&lt;font color=&quot;#ffffff&quot; style=&quot;background-color: rgb(0 , 0 , 0) ; font-size: 12px&quot;&gt;&lt;b&gt;√&lt;/b&gt;&lt;/font&gt;&lt;/div&gt;" style="text;html=1;strokeColor=none;fillColor=none;align=center;verticalAlign=middle;whiteSpace=wrap;rounded=0;" vertex="1" parent="1">
                    <mxGeometry x="670" y="330" width="110" height="30" as="geometry"/>
                </mxCell>
                <mxCell id="180" value="&lt;div style=&quot;line-height: 19px&quot;&gt;&lt;font color=&quot;#ffffff&quot; style=&quot;background-color: rgb(0 , 0 , 0) ; font-size: 12px&quot;&gt;&lt;b&gt;√&lt;/b&gt;&lt;/font&gt;&lt;/div&gt;" style="text;html=1;strokeColor=none;fillColor=none;align=center;verticalAlign=middle;whiteSpace=wrap;rounded=0;" vertex="1" parent="1">
                    <mxGeometry x="670" y="380" width="110" height="30" as="geometry"/>
                </mxCell>
                <mxCell id="181" value="&lt;div style=&quot;line-height: 19px&quot;&gt;&lt;font color=&quot;#ffffff&quot; style=&quot;background-color: rgb(0 , 0 , 0) ; font-size: 12px&quot;&gt;&lt;b&gt;√&lt;/b&gt;&lt;/font&gt;&lt;/div&gt;" style="text;html=1;strokeColor=none;fillColor=none;align=center;verticalAlign=middle;whiteSpace=wrap;rounded=0;" vertex="1" parent="1">
                    <mxGeometry x="670" y="430" width="110" height="30" as="geometry"/>
                </mxCell>
                <mxCell id="182" value="&lt;div style=&quot;line-height: 19px&quot;&gt;&lt;font color=&quot;#ffffff&quot; style=&quot;background-color: rgb(0 , 0 , 0) ; font-size: 12px&quot;&gt;&lt;b&gt;x&lt;/b&gt;&lt;/font&gt;&lt;/div&gt;" style="text;html=1;strokeColor=none;fillColor=none;align=center;verticalAlign=middle;whiteSpace=wrap;rounded=0;" vertex="1" parent="1">
                    <mxGeometry x="670" y="480" width="110" height="30" as="geometry"/>
                </mxCell>
                <mxCell id="183" value="&lt;div style=&quot;line-height: 19px&quot;&gt;&lt;font color=&quot;#ffffff&quot; style=&quot;background-color: rgb(0 , 0 , 0) ; font-size: 12px&quot;&gt;&lt;b&gt;x&lt;/b&gt;&lt;/font&gt;&lt;/div&gt;" style="text;html=1;strokeColor=none;fillColor=none;align=center;verticalAlign=middle;whiteSpace=wrap;rounded=0;" vertex="1" parent="1">
                    <mxGeometry x="670" y="530" width="110" height="30" as="geometry"/>
                </mxCell>
                <mxCell id="184" value="&lt;div style=&quot;line-height: 19px&quot;&gt;&lt;font color=&quot;#ffffff&quot; style=&quot;background-color: rgb(0 , 0 , 0) ; font-size: 12px&quot;&gt;&lt;b&gt;√&lt;/b&gt;&lt;/font&gt;&lt;/div&gt;" style="text;html=1;strokeColor=none;fillColor=none;align=center;verticalAlign=middle;whiteSpace=wrap;rounded=0;" vertex="1" parent="1">
                    <mxGeometry x="405" y="330" width="110" height="30" as="geometry"/>
                </mxCell>
                <mxCell id="185" value="&lt;div style=&quot;line-height: 19px&quot;&gt;&lt;font color=&quot;#ffffff&quot; style=&quot;background-color: rgb(0 , 0 , 0) ; font-size: 12px&quot;&gt;&lt;b&gt;√&lt;/b&gt;&lt;/font&gt;&lt;/div&gt;" style="text;html=1;strokeColor=none;fillColor=none;align=center;verticalAlign=middle;whiteSpace=wrap;rounded=0;" vertex="1" parent="1">
                    <mxGeometry x="405" y="380" width="110" height="30" as="geometry"/>
                </mxCell>
                <mxCell id="186" value="&lt;div style=&quot;line-height: 19px&quot;&gt;&lt;font color=&quot;#ffffff&quot; style=&quot;background-color: rgb(0 , 0 , 0) ; font-size: 12px&quot;&gt;&lt;b&gt;√&lt;/b&gt;&lt;/font&gt;&lt;/div&gt;" style="text;html=1;strokeColor=none;fillColor=none;align=center;verticalAlign=middle;whiteSpace=wrap;rounded=0;" vertex="1" parent="1">
                    <mxGeometry x="405" y="430" width="110" height="30" as="geometry"/>
                </mxCell>
                <mxCell id="187" value="&lt;div style=&quot;line-height: 19px&quot;&gt;&lt;font color=&quot;#ffffff&quot; style=&quot;background-color: rgb(0 , 0 , 0) ; font-size: 12px&quot;&gt;&lt;b&gt;x&lt;/b&gt;&lt;/font&gt;&lt;/div&gt;" style="text;html=1;strokeColor=none;fillColor=none;align=center;verticalAlign=middle;whiteSpace=wrap;rounded=0;" vertex="1" parent="1">
                    <mxGeometry x="405" y="480" width="110" height="30" as="geometry"/>
                </mxCell>
                <mxCell id="188" value="&lt;div style=&quot;line-height: 19px&quot;&gt;&lt;font color=&quot;#ffffff&quot; style=&quot;background-color: rgb(0 , 0 , 0) ; font-size: 12px&quot;&gt;&lt;b&gt;x&lt;/b&gt;&lt;/font&gt;&lt;/div&gt;" style="text;html=1;strokeColor=none;fillColor=none;align=center;verticalAlign=middle;whiteSpace=wrap;rounded=0;" vertex="1" parent="1">
                    <mxGeometry x="405" y="530" width="110" height="30" as="geometry"/>
                </mxCell>
                <mxCell id="189" value="&lt;div style=&quot;line-height: 19px&quot;&gt;&lt;font color=&quot;#ffffff&quot; style=&quot;background-color: rgb(0 , 0 , 0) ; font-size: 12px&quot;&gt;&lt;b&gt;√&lt;/b&gt;&lt;/font&gt;&lt;/div&gt;" style="text;html=1;strokeColor=none;fillColor=none;align=center;verticalAlign=middle;whiteSpace=wrap;rounded=0;" vertex="1" parent="1">
                    <mxGeometry x="270" y="330" width="110" height="30" as="geometry"/>
                </mxCell>
                <mxCell id="190" value="&lt;div style=&quot;line-height: 19px&quot;&gt;&lt;font color=&quot;#ffffff&quot; style=&quot;background-color: rgb(0 , 0 , 0) ; font-size: 12px&quot;&gt;&lt;b&gt;√&lt;/b&gt;&lt;/font&gt;&lt;/div&gt;" style="text;html=1;strokeColor=none;fillColor=none;align=center;verticalAlign=middle;whiteSpace=wrap;rounded=0;" vertex="1" parent="1">
                    <mxGeometry x="270" y="380" width="110" height="30" as="geometry"/>
                </mxCell>
                <mxCell id="191" value="&lt;div style=&quot;line-height: 19px&quot;&gt;&lt;font color=&quot;#ffffff&quot; style=&quot;background-color: rgb(0 , 0 , 0) ; font-size: 12px&quot;&gt;&lt;b&gt;√&lt;/b&gt;&lt;/font&gt;&lt;/div&gt;" style="text;html=1;strokeColor=none;fillColor=none;align=center;verticalAlign=middle;whiteSpace=wrap;rounded=0;" vertex="1" parent="1">
                    <mxGeometry x="270" y="430" width="110" height="30" as="geometry"/>
                </mxCell>
                <mxCell id="192" value="&lt;div style=&quot;line-height: 19px&quot;&gt;&lt;font color=&quot;#ffffff&quot; style=&quot;background-color: rgb(0 , 0 , 0) ; font-size: 12px&quot;&gt;&lt;b&gt;√&lt;/b&gt;&lt;/font&gt;&lt;/div&gt;" style="text;html=1;strokeColor=none;fillColor=none;align=center;verticalAlign=middle;whiteSpace=wrap;rounded=0;" vertex="1" parent="1">
                    <mxGeometry x="270" y="480" width="110" height="30" as="geometry"/>
                </mxCell>
                <mxCell id="193" value="&lt;div style=&quot;line-height: 19px&quot;&gt;&lt;font color=&quot;#ffffff&quot; style=&quot;background-color: rgb(0 , 0 , 0) ; font-size: 12px&quot;&gt;&lt;b&gt;√&lt;/b&gt;&lt;/font&gt;&lt;/div&gt;" style="text;html=1;strokeColor=none;fillColor=none;align=center;verticalAlign=middle;whiteSpace=wrap;rounded=0;" vertex="1" parent="1">
                    <mxGeometry x="270" y="530" width="110" height="30" as="geometry"/>
                </mxCell>
                <mxCell id="194" value="&lt;div style=&quot;line-height: 19px&quot;&gt;&lt;font color=&quot;#ffffff&quot; style=&quot;background-color: rgb(0 , 0 , 0) ; font-size: 12px&quot;&gt;&lt;b&gt;√&lt;/b&gt;&lt;/font&gt;&lt;/div&gt;" style="text;html=1;strokeColor=none;fillColor=none;align=center;verticalAlign=middle;whiteSpace=wrap;rounded=0;" vertex="1" parent="1">
                    <mxGeometry x="540" y="330" width="110" height="30" as="geometry"/>
                </mxCell>
                <mxCell id="195" value="&lt;div style=&quot;line-height: 19px&quot;&gt;&lt;font color=&quot;#ffffff&quot; style=&quot;background-color: rgb(0 , 0 , 0) ; font-size: 12px&quot;&gt;&lt;b&gt;√&lt;/b&gt;&lt;/font&gt;&lt;/div&gt;" style="text;html=1;strokeColor=none;fillColor=none;align=center;verticalAlign=middle;whiteSpace=wrap;rounded=0;" vertex="1" parent="1">
                    <mxGeometry x="540" y="380" width="110" height="30" as="geometry"/>
                </mxCell>
                <mxCell id="196" value="&lt;div style=&quot;line-height: 19px&quot;&gt;&lt;font color=&quot;#ffffff&quot; style=&quot;background-color: rgb(0 , 0 , 0) ; font-size: 12px&quot;&gt;&lt;b&gt;√&lt;/b&gt;&lt;/font&gt;&lt;/div&gt;" style="text;html=1;strokeColor=none;fillColor=none;align=center;verticalAlign=middle;whiteSpace=wrap;rounded=0;" vertex="1" parent="1">
                    <mxGeometry x="540" y="430" width="110" height="30" as="geometry"/>
                </mxCell>
                <mxCell id="197" value="&lt;div style=&quot;line-height: 19px&quot;&gt;&lt;font color=&quot;#ffffff&quot; style=&quot;background-color: rgb(0 , 0 , 0) ; font-size: 12px&quot;&gt;&lt;b&gt;N/A&lt;/b&gt;&lt;/font&gt;&lt;/div&gt;" style="text;html=1;strokeColor=none;fillColor=none;align=center;verticalAlign=middle;whiteSpace=wrap;rounded=0;" vertex="1" parent="1">
                    <mxGeometry x="540" y="480" width="110" height="30" as="geometry"/>
                </mxCell>
                <mxCell id="198" value="&lt;div style=&quot;line-height: 19px&quot;&gt;&lt;font color=&quot;#ffffff&quot; style=&quot;background-color: rgb(0 , 0 , 0) ; font-size: 12px&quot;&gt;&lt;b&gt;N/A&lt;/b&gt;&lt;/font&gt;&lt;/div&gt;" style="text;html=1;strokeColor=none;fillColor=none;align=center;verticalAlign=middle;whiteSpace=wrap;rounded=0;" vertex="1" parent="1">
                    <mxGeometry x="540" y="530" width="110" height="30" as="geometry"/>
                </mxCell>
            </root>
        </mxGraphModel>
    </diagram>
</mxfile>